# xmcd CD database file
#
# Track frame offsets:
#	150
#	23707
#	48445
#
# Disc length: 957 seconds
#
# Revision: 2
# Processed by: cddbd v1.5PL3 Copyright (c) Steve Scherf et al.
# Submitted via: CDex 1.51
#
DISCID=1b03bb03
DTITLE=宇多田ヒカル - Automatic
DYEAR=1998
DGENRE=JPop
TTITLE0=Automatic
TTITLE1=time will tell
TTITLE2=Automatic (Original Karaoke)
EXTD=YEAR: 1998
EXTT0=
EXTT1=
EXTT2=
PLAYORDER=
